<svg width="16" height="16" viewBox="0 0 16 16" fill="none" xmlns="http://www.w3.org/2000/svg">
<path fill-rule="evenodd" clip-rule="evenodd" d="M7.99992 13.3333C10.9454 13.3333 13.3333 10.9454 13.3333 7.99992C13.3333 5.0544 10.9454 2.66659 7.99992 2.66659C5.0544 2.66659 2.66659 5.0544 2.66659 7.99992C2.66659 10.9454 5.0544 13.3333 7.99992 13.3333ZM7.99992 14.6666C11.6818 14.6666 14.6666 11.6818 14.6666 7.99992C14.6666 4.31802 11.6818 1.33325 7.99992 1.33325C4.31802 1.33325 1.33325 4.31802 1.33325 7.99992C1.33325 11.6818 4.31802 14.6666 7.99992 14.6666Z" fill="#777E91"/>
<path d="M7.33325 4.66667C7.33325 4.29848 7.63173 4 7.99992 4C8.36811 4 8.66659 4.29848 8.66659 4.66667C9.77116 4.66667 10.6666 5.5621 10.6666 6.66667C10.6666 7.03486 10.3681 7.33333 9.99992 7.33333C9.63173 7.33333 9.33325 7.03486 9.33325 6.66667C9.33325 6.29848 9.03477 6 8.66659 6H7.1622C6.88848 6 6.66659 6.22189 6.66659 6.49561C6.66659 6.70894 6.80309 6.89833 7.00547 6.96579L9.416 7.7693C10.1628 8.01825 10.6666 8.71716 10.6666 9.50439C10.6666 10.5145 9.84774 11.3333 8.83764 11.3333H8.66659C8.66659 11.7015 8.36811 12 7.99992 12C7.63173 12 7.33325 11.7015 7.33325 11.3333C6.22868 11.3333 5.33325 10.4379 5.33325 9.33333C5.33325 8.96514 5.63173 8.66667 5.99992 8.66667C6.36811 8.66667 6.66659 8.96514 6.66659 9.33333C6.66659 9.70152 6.96506 10 7.33325 10H8.83764C9.11136 10 9.33325 9.77811 9.33325 9.50439C9.33325 9.29106 9.19675 9.10167 8.99437 9.03421L6.58383 8.2307C5.837 7.98176 5.33325 7.28284 5.33325 6.49561C5.33325 5.48551 6.1521 4.66667 7.1622 4.66667H7.33325Z" fill="#777E91"/>
</svg>
