<svg width="32" height="32" viewBox="0 0 32 32" fill="none" xmlns="http://www.w3.org/2000/svg">
<path fill-rule="evenodd" clip-rule="evenodd" d="M22.2528 6.47824C24.3134 5.61966 26.3806 7.68688 25.522 9.74747L19.5985 23.9639C18.4401 26.7442 14.3653 26.2743 13.8701 23.3033L13.1311 18.8692L8.69701 18.1302C5.72602 17.635 5.25608 13.5602 8.03636 12.4018L22.2528 6.47824ZM23.6759 8.97824C23.8476 8.56612 23.4341 8.15268 23.022 8.32439L8.80559 14.2479C7.87883 14.6341 8.03548 15.9923 9.0258 16.1574L13.4599 16.8964C14.3028 17.0369 14.9634 17.6974 15.1039 18.5404L15.8429 22.9745C16.0079 23.9648 17.3662 24.1214 17.7524 23.1947L23.6759 8.97824Z" fill="#B1B5C4"/>
</svg>
