<svg width="16" height="16" viewBox="0 0 16 16" fill="none" xmlns="http://www.w3.org/2000/svg">
<path fill-rule="evenodd" clip-rule="evenodd" d="M7.99992 13.3335C10.9454 13.3335 13.3333 10.9457 13.3333 8.00016C13.3333 5.05464 10.9454 2.66683 7.99992 2.66683C5.0544 2.66683 2.66659 5.05464 2.66659 8.00016C2.66659 10.9457 5.0544 13.3335 7.99992 13.3335ZM7.99992 14.6668C11.6818 14.6668 14.6666 11.6821 14.6666 8.00016C14.6666 4.31826 11.6818 1.3335 7.99992 1.3335C4.31802 1.3335 1.33325 4.31826 1.33325 8.00016C1.33325 11.6821 4.31802 14.6668 7.99992 14.6668Z" fill="#777E91"/>
<path fill-rule="evenodd" clip-rule="evenodd" d="M9.16453 12.1179C9.657 11.133 10.0001 9.679 10.0001 8.00016C10.0001 6.32132 9.657 4.86734 9.16453 3.8824C8.63219 2.81771 8.14345 2.66683 8.00008 2.66683C7.85671 2.66683 7.36797 2.81771 6.83563 3.8824C6.34316 4.86734 6.00008 6.32132 6.00008 8.00016C6.00008 9.679 6.34316 11.133 6.83563 12.1179C7.36797 13.1826 7.85671 13.3335 8.00008 13.3335C8.14345 13.3335 8.63219 13.1826 9.16453 12.1179ZM8.00008 14.6668C9.84103 14.6668 11.3334 11.6821 11.3334 8.00016C11.3334 4.31826 9.84103 1.3335 8.00008 1.3335C6.15913 1.3335 4.66675 4.31826 4.66675 8.00016C4.66675 11.6821 6.15913 14.6668 8.00008 14.6668Z" fill="#777E91"/>
<path fill-rule="evenodd" clip-rule="evenodd" d="M14.6337 8.66683C14.6554 8.44756 14.6666 8.22516 14.6666 8.00016C14.6666 7.77516 14.6554 7.55277 14.6337 7.3335H1.36617C1.3444 7.55277 1.33325 7.77516 1.33325 8.00016C1.33325 8.22516 1.3444 8.44756 1.36617 8.66683H14.6337Z" fill="#777E91"/>
</svg>
